<svg width="29" height="22" viewBox="0 0 29 22" fill="currentColor" xmlns="http://www.w3.org/2000/svg">
<g clip-path="url(#clip0_35780_131)">
<path d="M1.74121 5.33876C1.74121 4.48373 2.25631 4.02268 3.28652 3.95562L7.25636 3.98077C7.52279 3.98077 7.70042 4.10651 7.78923 4.35799C8.19776 5.61538 8.65513 6.70094 9.16135 7.61465C9.66758 8.52835 10.3292 9.58038 11.1463 10.7707C11.2173 10.9216 11.3328 10.997 11.4926 10.997C11.617 10.997 11.7147 10.9384 11.7857 10.821L11.8656 10.5444L11.8923 6.19379C11.8923 5.89201 11.8168 5.69083 11.6658 5.59024C11.5148 5.48964 11.2351 5.4142 10.8266 5.36391C10.5068 5.31361 10.347 5.12919 10.347 4.81065C10.347 4.74359 10.3559 4.69329 10.3736 4.65976C10.7466 3.57002 11.8124 3.02515 13.5708 3.02515L15.0628 3C15.7378 3 16.2973 3.15927 16.7414 3.47781C17.1854 3.79635 17.4074 4.29931 17.4074 4.98669V10.6953C17.5318 10.7791 17.6472 10.821 17.7538 10.821C18.0202 10.821 18.2511 10.6701 18.4465 10.3683C20.4004 7.78649 21.4572 6.05966 21.6171 5.18787C21.6171 5.1711 21.6348 5.12919 21.6704 5.06213C21.7947 4.81065 21.999 4.5927 22.2832 4.40828C22.5673 4.22387 22.816 4.09813 23.0292 4.03107C23.1002 3.99753 23.1801 3.98077 23.269 3.98077H27.3987L27.6651 4.00592C28.0203 4.00592 28.2956 4.16519 28.491 4.48373C28.5621 4.58432 28.6109 4.69329 28.6376 4.81065C28.6642 4.92801 28.682 5.04536 28.6909 5.16272C28.6997 5.28008 28.7042 5.34714 28.7042 5.36391V5.53994C28.5798 6.22732 28.2646 6.9608 27.7583 7.74038C27.2521 8.51997 26.6082 9.36243 25.8267 10.2678C25.0452 11.1731 24.5567 11.7682 24.3613 12.0533C24.2015 12.2544 24.1215 12.4389 24.1215 12.6065C24.1215 12.7406 24.1926 12.8915 24.3347 13.0592L28.2246 17.6864C28.4377 17.9546 28.5443 18.248 28.5443 18.5666C28.5443 18.9522 28.3845 19.2707 28.0647 19.5222C27.745 19.7737 27.3631 19.9162 26.9191 19.9497L26.4661 19.9749H22.4164C22.3986 19.9749 22.3631 19.979 22.3098 19.9874C22.2565 19.9958 22.221 20 22.2032 20C21.8125 20 21.4483 19.8407 21.1108 19.5222C20.9865 19.3881 20.1517 18.3989 18.6064 16.5547C18.5176 16.4374 18.3932 16.3284 18.2334 16.2278C18.1623 16.4961 18.0691 16.8817 17.9536 17.3846C17.8382 17.8876 17.7538 18.248 17.7005 18.466L17.6206 18.8935C17.443 19.4803 17.07 19.8323 16.5016 19.9497L16.1286 19.9749H13.5175C12.0433 19.9749 10.5734 19.3378 9.10807 18.0636C7.64269 16.7894 6.32385 15.1423 5.15155 13.122C3.97924 11.1018 2.88687 8.75049 1.87443 6.06805C1.78562 5.8501 1.74121 5.607 1.74121 5.33876ZM17.7538 11.8521C17.3808 11.8521 17.0433 11.7557 16.7414 11.5629C16.4394 11.3701 16.2884 11.106 16.2884 10.7707V4.98669C16.2884 4.65138 16.1996 4.41248 16.022 4.26997C15.8444 4.12747 15.5335 4.05621 15.0895 4.05621L13.5708 4.10651C12.807 4.10651 12.2298 4.23225 11.839 4.48373C12.6205 4.8358 13.0113 5.40582 13.0113 6.19379V10.6198C12.9758 11.039 12.7982 11.3868 12.4784 11.6635C12.1587 11.9401 11.8035 12.0784 11.4127 12.0784C10.8798 12.0784 10.4713 11.8353 10.1871 11.3491C8.80167 9.37081 7.77147 7.4931 7.0965 5.71598L6.85671 5.06213L3.31316 5.03698C3.08225 5.03698 2.95348 5.04956 2.92684 5.0747C2.90019 5.09985 2.88687 5.1711 2.88687 5.28846C2.88687 5.43935 2.90463 5.59862 2.94016 5.76627L3.49967 7.17456C4.99169 10.8126 6.61248 13.6795 8.36206 15.7751C10.1116 17.8708 11.8301 18.9186 13.5175 18.9186H16.1818C16.2884 18.9186 16.3684 18.8893 16.4216 18.8306C16.4749 18.7719 16.5193 18.6588 16.5549 18.4911L16.6081 18.2396L17.1144 16.0266C17.2565 15.7249 17.3808 15.5237 17.4874 15.4231C17.6828 15.2387 17.9137 15.1465 18.1801 15.1465C18.6064 15.1465 19.0416 15.3895 19.4856 15.8757L21.7503 18.5917C21.8924 18.8097 22.0434 18.9186 22.2032 18.9186H26.5994C27.1322 18.9186 27.3987 18.7929 27.3987 18.5414C27.3987 18.4576 27.372 18.3738 27.3187 18.2899L23.4555 13.7382C23.1535 13.3861 23.0025 13.0089 23.0025 12.6065C23.0025 12.2041 23.1446 11.8185 23.4288 11.4497C23.6597 11.1144 24.1082 10.557 24.7743 9.77737C25.4404 8.99778 26.0221 8.26849 26.5194 7.5895C27.0168 6.9105 27.3454 6.29438 27.5052 5.74112L27.5852 5.4142C27.5674 5.38067 27.5585 5.32618 27.5585 5.25074C27.5585 5.1753 27.5496 5.11243 27.5319 5.06213H23.3489C23.0825 5.16272 22.8693 5.31361 22.7094 5.51479L22.5496 5.9926C22.1055 7.14941 20.9421 8.93491 19.0593 11.3491C18.6863 11.6844 18.2511 11.8521 17.7538 11.8521Z"/>
</g>
<defs>
<clipPath id="clip0_35780_131">
<rect width="28" height="22" fill="white" transform="translate(0.741211)"/>
</clipPath>
</defs>
</svg>
