<svg width="29" height="22" viewBox="0 0 29 22" fill="currentColor" xmlns="http://www.w3.org/2000/svg">
<path d="M18.5921 10.7927L13.3558 7.30184C13.2572 7.23691 13.1428 7.19985 13.0249 7.19459C12.907 7.18934 12.7898 7.21608 12.6858 7.27198C12.5818 7.32789 12.4949 7.41087 12.4342 7.51215C12.3736 7.61343 12.3414 7.72924 12.3412 7.84729V14.8291C12.3413 14.9481 12.3739 15.0648 12.4354 15.1667C12.4969 15.2686 12.5851 15.3518 12.6903 15.4073C12.7937 15.4631 12.9103 15.4895 13.0276 15.4837C13.1449 15.478 13.2584 15.4402 13.3558 15.3746L18.5921 11.8837C18.6821 11.824 18.756 11.7429 18.807 11.6477C18.8581 11.5526 18.8849 11.4462 18.8849 11.3382C18.8849 11.2302 18.8581 11.1239 18.807 11.0287C18.756 10.9335 18.6821 10.8525 18.5921 10.7927ZM13.6503 13.6073V9.06911L17.0539 11.3382L13.6503 13.6073ZM26.1303 5.04366C26.0354 4.67547 25.8543 4.33511 25.6021 4.05061C25.3498 3.76611 25.0336 3.54561 24.6794 3.40729C20.9594 1.9782 14.9921 2.00002 14.7412 2.00002C14.4903 2.00002 8.52303 1.9782 4.80303 3.40729C4.44885 3.54561 4.13261 3.76611 3.88036 4.05061C3.6281 4.33511 3.44705 4.67547 3.35212 5.04366C3.06848 6.11275 2.74121 8.07638 2.74121 11.3382C2.74121 14.6 3.06848 16.5637 3.35212 17.6327C3.44705 18.0009 3.6281 18.3413 3.88036 18.6258C4.13261 18.9103 4.44885 19.1308 4.80303 19.2691C8.52303 20.6982 14.4903 20.6764 14.7412 20.6764H14.8176C15.5703 20.6764 21.1339 20.6327 24.6794 19.2691C25.0336 19.1308 25.3498 18.9103 25.6021 18.6258C25.8543 18.3413 26.0354 18.0009 26.1303 17.6327C26.4139 16.5637 26.7412 14.6 26.7412 11.3382C26.7412 8.07638 26.4139 6.11275 26.1303 5.04366ZM24.8648 17.3055C24.8219 17.472 24.7402 17.6259 24.6265 17.7548C24.5127 17.8838 24.3701 17.984 24.2103 18.0473C20.7194 19.3891 14.8067 19.3673 14.7412 19.3673C14.6758 19.3673 8.76303 19.3891 5.27212 18.0473C5.11228 17.984 4.96967 17.8838 4.85592 17.7548C4.74217 17.6259 4.6605 17.472 4.61757 17.3055C4.35576 16.3018 4.0503 14.4582 4.0503 11.3382C4.0503 8.2182 4.35576 6.37457 4.61757 5.37093C4.6605 5.20445 4.74217 5.05047 4.85592 4.92156C4.96967 4.79264 5.11228 4.69243 5.27212 4.62911C8.76303 3.28729 14.6758 3.30911 14.7412 3.30911C14.8067 3.30911 20.7194 3.28729 24.2103 4.62911C24.3701 4.69243 24.5127 4.79264 24.6265 4.92156C24.7402 5.05047 24.8219 5.20445 24.8648 5.37093C25.1267 6.37457 25.4321 8.2182 25.4321 11.3382C25.4321 14.4582 25.1267 16.3018 24.8648 17.3055Z"/>
</svg>
