<svg width="27" height="34" viewBox="0 0 27 34" fill="currentColor" xmlns="http://www.w3.org/2000/svg">
<path d="M13.7587 0H13.6592L0.21875 1.39589V26.0235L13.6592 34L27 26.0235V1.39589L13.7587 0ZM25.1084 12.0645L13.6592 5.28446V5.18475H13.5596L13.4601 5.08504V5.18475L2.11037 12.0645V3.09091L13.5596 1.89443L25.1084 3.09091V12.0645ZM13.5596 6.78006L25.0089 13.4604L20.5287 16.0528L13.4601 11.8651V13.261L19.334 16.7507L18.438 17.2493L13.4601 14.2581V15.654L17.2433 17.9472L16.4468 18.4457L13.4601 16.651V18.0469L15.3517 19.1437L13.5596 20.2405L2.20992 13.5601L13.5596 6.78006ZM2.11037 15.0557L13.4601 21.8358V22.8328L5.59492 18.1466V19.5425L13.5596 24.3284V25.4252L5.59492 20.739V22.1349L13.5596 26.9208L21.6239 22.0352V16.8504L25.0089 14.8563V24.827L13.5596 31.7067L2.11037 24.9267V15.0557Z"/>
</svg>
