<svg width="152" height="152" viewBox="0 0 152 152" fill="none" xmlns="http://www.w3.org/2000/svg"><path fill="#EEE" d="M0 0h152v152H0z"/><path d="M107.6 81.6c-.4-8.8-1.7-17.7-1.7-26.6 0-7.3 1.3-14.8-1.3-21.8l.3-2.3c.7-3.6-11-1.6-12.7 1.7-1 1-1.7 2-1.3 3.3 0 .3.3.6.3 1-2.3 10.5-5.4 21-8.7 31.2-1.3 4-3 8-4.3 11.9-2-3.6-4-7.2-5.7-11.2-4.7-11.5-8.7-23-14.4-34 .7-4.8-10.7-4.5-13 0a28.2 28.2 0 0 0-1.4 17.5c1 7 1.4 13.5 1.4 20.5 0 13.1 1.3 26.3 1.3 39.5-1.3 1.3-1.7 3-.3 4.6l2 2c3 2.3 11.7.3 11.7-4.3 0-13.9-1-27.4-1.4-41.2v-4c.4.4.4 1 .7 1.4 2 5.2 4.4 10.5 7.4 15.5 3 4.9 4.3 10.2 6 15.4-.7.7-1 1.7-.7 2.3 0 .7.3 1 1 1.3 2 2 6.4 1 8.4 0 1-.3 2-1 2.6-1.3 1-.6 3-2.3 2.4-4 0-.2-.4-.6-.4-1 1.7-4.2 2.4-8.5 3.4-13 1-4.7 2.7-9.3 4.3-14 .4 2 .4 4.4.7 6.3.7 8.6 0 16.8 0 25.4 0 3 .3 5.3.7 8.2.3 1 1.3 6 1 6.3-2 2-1.4 4.3 1.3 4.6 3 .7 7-.3 9.4-2.3 4-3.6 2-9.6 1.3-14.2-2-7.9-.3-16.8-.3-24.7Z" fill="#000"/></svg>