<svg width="1150" height="34" viewBox="0 0 1150 34" fill="none" xmlns="http://www.w3.org/2000/svg"><path d="M1121.3 0c-14.4 0-14.4 14-28.7 14-14.3 0-14.4-14-28.7-14-14.3 0-14.4 14-28.7 14-14.4 0-14.4-14-28.8-14S992 14 977.7 14C963.3 14 963.3 0 949 0c-14.4 0-14.4 14-28.7 14-14.3 0-14.7-14-29-14-14.4 0-14.4 14-28.7 14-14.3 0-14.5-14-28.8-14-14.4 0-14.4 14-28.7 14-14.4 0-14.4-14-28.8-14s-14.4 14-28.7 14c-14.4 0-14.4-14-28.7-14-14.3 0-14.5 14-28.9 14-14.4 0-14.4-14-28.7-14-14.4 0-14.4 14-28.7 14-14.4 0-14.4-14-28.8-14s-14.4 14-28.7 14c-14.4 0-14.4-14-28.7-14C532 0 532 14 517.7 14 503.3 14 503.3 0 489 0c-14.4 0-14.4 14-28.8 14S445.8 0 431.4 0 417 14 402.6 14 388.2 0 373.8 0 359.4 14 345 14 330.6 0 316.2 0s-14.4 14-28.8 14S273 0 258.6 0s-14.4 14-28.7 14c-14.4 0-14.4-14-28.8-14s-14.4 14-28.8 14-14.4-14-28.8-14-14.4 14-28.8 14S100.3 0 85.9 0c-14 0-14 14-28.4 14C43.1 14 43.1 0 28.8 0 14.5 0 14.4 14 0 14v20h1150V14c-14.4 0-14.4-14-28.7-14Z" fill="#fff"/></svg>