<svg width="1050" height="23" viewBox="0 0 1050 23" fill="none" xmlns="http://www.w3.org/2000/svg"><path d="M1050 23c-8.2 0-12.5-4.6-16-8.3-3-3.3-5.4-5.7-10.2-5.7-5 0-7.1 2.4-10.2 5.7-3.5 3.7-7.8 8.3-16 8.3s-12.5-4.6-16-8.3c-3-3.3-5.4-5.7-10.2-5.7-4.9 0-7.1 2.4-10.2 5.7-3.5 3.7-7.8 8.3-16 8.3s-12.5-4.6-16-8.3C926.1 11.4 923.8 9 919 9c-5 0-7.1 2.4-10.2 5.7-3.5 3.7-7.8 8.3-16 8.3s-12.5-4.6-16-8.3c-3.1-3.3-5.4-5.7-10.2-5.7-5 0-7.2 2.4-10.3 5.7-3.8 3.7-8 8.3-16.3 8.3-8.2 0-12.5-4.6-16-8.3-3-3.3-5.4-5.7-10.2-5.7-5 0-7.1 2.4-10.2 5.7-3.5 3.7-7.8 8.3-16 8.3s-12.5-4.6-16-8.3c-3-3.3-5.4-5.7-10.2-5.7-5 0-7.1 2.4-10.2 5.7-3.7 3.7-8 8.3-16.2 8.3s-12.5-4.6-16-8.3c-3-3.3-5.4-5.7-10.2-5.7-5 0-7.1 2.4-10.2 5.7-3.5 3.7-7.8 8.3-16 8.3s-12.5-4.6-16-8.3c-3-3.3-5.4-5.7-10.2-5.7-4.9 0-7.1 2.4-10.2 5.7-3.6 3.7-8 8.3-16.2 8.3s-12.5-4.6-16-8.3c-3-3.3-5.4-5.7-10.2-5.7-5 0-7.1 2.4-10.2 5.7-3.5 3.7-7.8 8.3-16 8.3s-12.5-4.6-16-8.3c-3-3.3-5.4-5.7-10.2-5.7-5 0-7.1 2.4-10.2 5.7-3.5 3.7-7.8 8.3-16 8.3s-12.5-4.6-16-8.3C506.1 11.4 503.8 9 499 9c-4.9 0-7.1 2.4-10.2 5.7-3.5 3.7-7.8 8.3-16 8.3s-12.5-4.6-16-8.3c-3.1-3.3-5.4-5.7-10.2-5.7-5 0-7.2 2.4-10.3 5.7-3.4 3.7-7.7 8.3-16 8.3-8.2 0-12.4-4.6-16-8.3-3-3.3-5.3-5.7-10.1-5.7-5 0-7.2 2.4-10.3 5.7-3.4 3.7-7.7 8.3-16 8.3-8.2 0-12.5-4.6-16-8.3-3-3.3-5.3-5.7-10.1-5.7-5 0-7.2 2.4-10.3 5.7-3.4 3.7-7.7 8.3-16 8.3-8.2 0-12.5-4.6-16-8.3-3-3.3-5.3-5.7-10.2-5.7-4.8 0-7 2.4-10.2 5.7-3.5 3.7-7.7 8.3-16 8.3-8.2 0-12.5-4.6-16-8.3-3-3.3-5.3-5.7-10.2-5.7-4.9 0-7 2.4-10.2 5.7-3.5 3.7-7.8 8.3-16 8.3s-12.5-4.6-16-8.3c-3-3.3-5.3-5.7-10.2-5.7-4.9 0-7.1 2.4-10.2 5.7-3.5 3.7-7.8 8.3-16 8.3s-12.5-4.6-16-8.3c-3-3.3-5.3-5.7-10.2-5.7-5 0-7.1 2.4-10.2 5.7-4.3 3.7-8.7 8.3-16.9 8.3s-12.5-4.6-16-8.3C86 11.4 83.6 9 78.8 9c-5 0-7.1 2.4-10.2 5.7-3.5 3.7-7.8 8.3-16 8.3s-12.5-4.6-16-8.3C33.4 11.4 31.1 9 26.3 9c-5 0-7.1 2.4-10.2 5.7C12.5 18.4 8.2 23 0 23v-9c5 0 7.1-2.4 10.2-5.7C13.7 4.6 18 0 26.3 0c8.2 0 12.5 4.6 16 8.3 3 3.3 5.4 5.7 10.2 5.7 5 0 7.1-2.4 10.2-5.7C66.2 4.6 70.6 0 78.8 0c8.2 0 12.5 4.6 16 8.3 3 3.3 5.4 5.7 10.2 5.7 5 0 7.1-2.4 10.2-5.7 3.5-3.7 7.8-8.3 16-8.3s12.5 4.6 16 8.3c3 3.3 5.4 5.7 10.2 5.7 5 0 7.1-2.4 10.2-5.7 3.5-3.7 7.8-8.3 16-8.3s12.5 4.6 16 8.3c3.1 3.3 5.4 5.7 10.2 5.7 5 0 7.1-2.4 10.2-5.7 3.5-3.7 7.8-8.3 16-8.3s12.5 4.6 16 8.3c3.1 3.3 5.4 5.7 10.2 5.7 5 0 7.1-2.4 10.3-5.7 3.4-3.7 7.7-8.3 16-8.3 8.1 0 12.4 4.6 16 8.3 3 3.3 5.3 5.7 10.1 5.7 5 0 7.2-2.4 10.3-5.7 3.4-3.7 7.7-8.3 16-8.3 8.2 0 12.4 4.6 16 8.3 3 3.3 5.3 5.7 10.1 5.7 4.9 0 7.2-2.4 10.3-5.7 3.4-3.7 7.7-8.3 16-8.3 8.2 0 12.5 4.6 16 8.3 3 3.3 5.3 5.7 10.2 5.7 4.9 0 7-2.4 10.2-5.7 3.4-3.7 7.7-8.3 16-8.3 8.2 0 12.5 4.6 16 8.3 3 3.3 5.3 5.7 10.2 5.7 4.9 0 7-2.4 10.2-5.7 3.5-3.7 7.7-8.3 16-8.3 8.2 0 12.5 4.6 16 8.3 3 3.3 5.3 5.7 10.2 5.7 4.9 0 7-2.4 10.2-5.7 3.5-3.7 7.8-8.3 16-8.3s12.5 4.6 16 8.3c3 3.3 5.3 5.7 10.2 5.7 5 0 7.1-2.4 10.2-5.7 3.5-3.7 7.8-8.3 16-8.3s12.5 4.6 16 8.3c3 3.3 5.3 5.7 10.2 5.7 5 0 7.1-2.4 10.2-5.7 3.5-3.7 7.8-8.3 16-8.3s12.5 4.6 16 8.3c3 3.3 5.4 5.7 10.2 5.7 5 0 7.1-2.4 10.2-5.7 3.5-3.7 7.8-8.3 16-8.3s12.5 4.6 16 8.3c3 3.3 5.4 5.7 10.2 5.7 5 0 7.1-2.4 10.2-5.7C748.7 4.6 753 0 761.3 0c8.2 0 12.5 4.6 16 8.3 3 3.3 5.4 5.7 10.2 5.7 4.8 0 7.1-2.4 10.2-5.7 3.5-3.7 7.8-8.3 16-8.3s12.5 4.6 16 8.3c3 3.3 5.4 5.7 10.2 5.7 4.8 0 7.1-2.4 10.2-5.7C853.7 4.6 858 0 866.3 0c8.3 0 12.5 4.6 16 8.3 3 3.3 5.4 5.7 10.2 5.7 4.8 0 7.1-2.4 10.2-5.7 3.5-3.7 7.8-8.3 16-8.3s12.5 4.6 16 8.3c3 3.3 5.4 5.7 10.2 5.7 5 0 7.1-2.4 10.2-5.7 3.5-3.7 7.8-8.3 16-8.3s12.5 4.6 16 8.3c3.1 3.3 5.4 5.7 10.2 5.7 4.9 0 7.1-2.4 10.2-5.7 3.5-3.7 7.8-8.3 16-8.3s12.5 4.6 16 8.3c3.1 3.3 5.4 5.7 10.2 5.7v9h.3Z" fill="#F1F1F1"/></svg>