<svg xmlns="http://www.w3.org/2000/svg">
  <symbol id="icon-search" viewBox="0 0 18 18" fill="currentColor">
    <path d="m17.7 16.06-3.48-3.48a7.63 7.63 0 0 0 1.53-4.7c0-4.4-3.48-7.88-7.88-7.88A7.81 7.81 0 0 0 0 7.88c0 4.4 3.48 7.87 7.88 7.87 1.73 0 3.37-.61 4.7-1.53l3.48 3.47c.2.2.4.31.82.31.6 0 1.12-.51 1.12-1.13 0-.2-.1-.5-.3-.81ZM2.24 7.88a5.67 5.67 0 0 1 5.63-5.63 5.67 5.67 0 0 1 5.62 5.63 5.67 5.67 0 0 1-5.63 5.62 5.67 5.67 0 0 1-5.62-5.63Z" />
  </symbol>
  <symbol id="icon-cart" viewBox="0 0 21 18" fill="currentColor">
    <path d="M20.19 6.86h-3.55L13.19.38c-.2-.38-.61-.48-1.02-.28-.4.19-.5.57-.3.95l3.14 5.8H5.78l3.15-5.8c.2-.38 0-.76-.3-.95A.82.82 0 0 0 7.6.38L4.16 6.86H.8c-.4 0-.81.28-.81.76 0 .38.3.76.81.76h.2l.92 2.86c-.2.1-.3.28-.3.57 0 .38.3.67.7.67L4.06 18h12.88l1.73-5.52c.4 0 .7-.29.7-.67 0-.2-.1-.48-.3-.57L20 8.38h.2c.4 0 .81-.28.81-.76s-.4-.76-.81-.76Zm-4.57 9.62H5.07l-1.21-4.1h13.08l-1.32 4.1Zm1.63-5.53H3.35L2.54 8.3h15.52l-.81 2.66Z" />
  </symbol>
  <symbol id="icon-arrow-prev" viewBox="0 0 50 26" fill="currentColor">
    <path d="M50 11H7.7l8.1-8.2L13 0 0 13l13 13 2.8-2.8L7.7 15H50v-4Z" />
  </symbol>
  <symbol id="icon-arrow-next" viewBox="0 0 50 26" fill="currentColor">
    <path d="M0 11h42.3l-8.1-8.2L37 0l13 13-13 13-2.8-2.8 8.1-8.2H0v-4Z" />
  </symbol>
  <symbol id="site-logo" viewBox="0 0 102 34" fill="currentColor">
    <path d="M19.22 21.4c-.1-2.7-.5-5.3-.5-8 0-2.2.4-4.4-.4-6.5 0-.2.1-.5.1-.7.2-1-3.3-.5-3.8.5-.3.3-.5.6-.4 1 0 .1.1.2.1.3-.7 3.2-1.6 6.3-2.6 9.4-.4 1.2-.9 2.3-1.3 3.5-.6-1.1-1.2-2.2-1.6-3.4-1.4-3.4-2.6-6.9-4.3-10.2.2-1.5-3.2-1.4-3.9 0-.8 1.7-.7 3.4-.4 5.2.3 2 .4 4 .4 6.1 0 4 .4 7.9.4 11.9-.4.4-.5.9-.1 1.4.2.2.4.4.6.5 1 .7 3.6.1 3.6-1.3 0-4.1-.3-8.2-.4-12.4v-1.2c.1.1.1.3.2.4.6 1.6 1.3 3.2 2.2 4.7.9 1.5 1.3 3.1 1.8 4.7-.2.2-.3.5-.2.7 0 .2.1.3.3.4.6.5 1.8.3 2.5 0 .3-.1.6-.3.8-.4.3-.2.9-.7.7-1.2 0-.1-.1-.2-.1-.3.5-1.3.7-2.6 1-3.9.3-1.4.8-2.8 1.3-4.1.1.6.1 1.2.2 1.9.2 2.6 0 5.1 0 7.6 0 .8.1 1.6.2 2.5.1.3.4 1.8.3 1.9-.8.5-.6 1.1.2 1.3.9.2 2.1-.1 2.8-.7 1.2-1.1.6-2.8.4-4.2-.5-2.4 0-5-.1-7.4ZM27.62 22.1c-.1-2-.8-3.9-.8-5.9 0-2.3.2-4.6-.2-6.9-.1-.7-4.1.1-3.9 1 .3 2.1.2 4.2.2 6.4 0 2 .5 3.9.7 5.9.3 2.1-.1 4.2.1 6.2.1 1 .8 2.7.1 3.6-.4.5 1.5.3 1.6.3.8-.1 1.8-.4 2.3-1 .7-.8.2-2.4.1-3.4-.3-2-.1-4.2-.2-6.2ZM43.92 18.8c-2.1-2.8-5.9-.8-8.6-1.5-1.4-.4-1.4-2.3-1.4-3.4 0-1.4-.1-2.7-.3-4.1-.1-1.1 0-2.1.7-2.9.1-.1.9-.3.8-.3.4-.1.7-.1 1.1-.1 1.5-.1 4.6.2 4 2.5-.3 1 3.6.4 3.9-.6 1.2-4.6-7.3-3.7-9.7-3.1-2.2.6-4.6 1.8-4.8 4.4-.1 1.2.3 2.4.3 3.6.1 1.4-.2 2.8.3 4.1 1.1 3 5.5 1.6 7.8 1.7 3.8.3 2.7 5.5 2.7 7.9 0 1.3 1.2 3.4.2 4.5-.6.7-2 .7-2.8.8-.8.1-2.2.3-2.7-.5-1-1.4.1-3.8-.1-5.4-.1-.9-4.1-.1-3.9 1 .3 2.6-1.4 6.1 2.4 6.6 2.4.3 5.2-.2 7.5-.9 1.2-.4 2.3-.9 3.2-1.8 1-.9.7-2.3.4-3.5-.5-3.1.9-6.5-1-9ZM61.32 18.6c-.1-3.8-.7-7.5-.7-11.3 0-2-4-1.3-4 .3 0 3.6.5 7.2.7 10.8v.2c-1.9 0-3.9.2-5.9.2.2-4.6-.6-9.2-.4-13.9 0-.6-3.9-.1-3.9 1-.2 4.5.6 8.9.5 13.4l-.3 6.4c0 1.1.2 2.2.3 3.3.1 1 .5 2.3.2 3.3-.2.8 3.6.3 3.9-.7.5-1.8-.2-4-.4-5.8-.2-1.7 0-3.5.1-5.2 2-.1 4.1-.3 6.1 0l.3 4.1c.1 1.2.2 2.3.2 3.5 0 1 .1 2.5-.2 3.5-.8 2.1 3.1 1.9 3.7.4.7-1.9.5-4.2.4-6.2-.2-2.5-.6-4.9-.6-7.3ZM78.22 23c-.9-2.8-2.4-5.2-3.6-7.8 1-1.9 2-3.9 2.9-5.9.8-1.8 1.4-3.8 3.1-5.1.6-.4.6-.9-.3-1-.9-.1-2.1.2-2.8.7-1.4 1.3-2.4 2.7-3.1 4.4-.9 2.1-1.9 4.1-2.9 6.1-.1.1-.1.3-.2.4-.5.3-.8.8-.6 1.3-.8 1.6-1.6 3.1-2.5 4.6-.3-5.5-1-11.1-1.2-16.6 0-1.3-4-.5-3.9 1 .2 6.9 1.2 13.7 1.3 20.6v.1c-.3.3-.2.5.1.6 0 1.8-.1 3.5-.2 5.3-.5.7.5 1.1 1.1 1.1h.1c.7 0 2.6-.3 2.7-1.4.2-2.1.3-4.2.2-6.3 1.6-1.7 2.9-3.6 4.1-5.6.8 1.5 1.5 3 2 4.6.9 2.7 2.3 5.3 3.1 8 .5 1.8 4.5.7 3.9-1-1-2.8-2.4-5.3-3.3-8.1ZM101.72 18.4c-.2-.8-1.4-.8-2.3-.8v-1c-.1-2.7-.2-5.4-.4-8-.2-2.5-1.6-3.3-4-3.2-2.4.1-5.2.5-7.5 1.4-2.6 1-4.1 2.9-4.6 5.7-.5 3 .2 6.2.4 9.2.2 3.5.1 7 .1 10.5 0 .6 3.9 0 3.9-1v-8.3c0-.8-.1-1.6-.1-2.4 1.4-.6 3.7 0 5.1.1 1.1.1 2.2-.2 3.2-.3 0 2.3.1 4.6.2 6.9 0 1.2.5 3.5-.4 4.5-.4.5 1.5.3 1.6.3.8-.1 1.8-.4 2.3-1 .9-1.1.5-3.8.4-5.1-.1-1.9-.1-3.8-.1-5.7 1.1-.2 2.4-.9 2.2-1.8Zm-14.6-.1-.3-3.7c-.2-2.3.1-5.6 2.3-7 .6-.4 1.7-.3 2.4-.4 1-.2 2-.4 2.8.2 1.2.8.9 3.7.9 4.9 0 2 .2 4 .3 6-.6.1-1.1.1-1.7.1-2.3-.2-4.6-.6-6.7-.1ZM24.22 6.6c.5-.1 1-.2 1.5-.5l.2-.2c.5-.3 1-.8.7-1.4-.5-1.1-.4-2.2-.4-3.4 0-1-1-1.2-1.8-1.2-.7.1-2.2.6-2.2 1.5 0 1-.1 2 .1 3 0 .1-.1.2-.1.4-.1.2 0 .4.1.6v.4c.1.2.2.4.4.5.6.3 1.1.3 1.5.3Z" />
  </symbol>
  <symbol id="icon-vk" viewBox="0 0 29 23" fill="currentColor">
    <path d="M1 5.34c0-.86.52-1.32 1.55-1.38l3.97.02c.27 0 .44.13.53.38.41 1.26.87 2.34 1.38 3.25.5.92 1.16 1.97 1.98 3.16.07.15.19.23.35.23.12 0 .22-.06.29-.18l.08-.28.03-4.35c0-.3-.08-.5-.23-.6-.15-.1-.43-.18-.84-.23-.32-.05-.48-.23-.48-.55 0-.07.01-.12.03-.15.37-1.09 1.44-1.63 3.2-1.63L14.32 3c.67 0 1.23.16 1.67.48.45.32.67.82.67 1.5v5.72c.13.08.24.12.35.12.26 0 .5-.15.69-.45 1.95-2.58 3.01-4.31 3.17-5.18l.05-.13c.13-.25.33-.47.62-.65.28-.19.53-.31.74-.38a.56.56 0 0 1 .24-.05h4.13l.27.03c.35 0 .63.16.82.47.08.1.12.21.15.33a2.4 2.4 0 0 1 .07.55v.18a6.1 6.1 0 0 1-.95 2.2c-.5.78-1.15 1.62-1.93 2.53-.78.9-1.27 1.5-1.46 1.78-.16.2-.24.39-.24.56 0 .13.07.28.2.45l3.9 4.63c.21.26.32.56.32.88 0 .38-.16.7-.48.95-.32.25-.7.4-1.15.43l-.45.02h-4.05l-.1.02a.86.86 0 0 1-.11.01c-.4 0-.76-.16-1.1-.48l-2.5-2.97a1.39 1.39 0 0 0-.37-.32 38.47 38.47 0 0 0-.54 2.24l-.08.42a1.4 1.4 0 0 1-1.11 1.06l-.38.02h-2.6c-1.48 0-2.95-.63-4.42-1.9a19.3 19.3 0 0 1-3.95-4.95 47.52 47.52 0 0 1-3.28-7.05A1.92 1.92 0 0 1 1 5.34Zm16.02 6.51c-.38 0-.71-.1-1.02-.29a.9.9 0 0 1-.45-.79V5c0-.34-.09-.58-.26-.72-.18-.14-.5-.21-.94-.21l-1.52.05c-.76 0-1.34.12-1.73.37.78.36 1.18.93 1.18 1.71v4.43a1.5 1.5 0 0 1-.54 1.04c-.32.28-.67.42-1.06.42-.54 0-.95-.24-1.23-.73a26.16 26.16 0 0 1-3.09-5.63l-.24-.66-3.54-.02c-.23 0-.36.01-.39.03-.03.03-.04.1-.04.22 0 .15.02.3.05.48l.56 1.4c1.5 3.64 3.12 6.51 4.87 8.6 1.75 2.1 3.46 3.15 5.15 3.15h2.67c.1 0 .18-.03.24-.09.05-.06.1-.17.13-.34l.05-.25.5-2.21c.15-.3.27-.5.38-.6.2-.2.43-.28.7-.28.42 0 .86.24 1.3.73L21 18.59c.15.22.3.33.46.33h4.4c.53 0 .8-.13.8-.38a.47.47 0 0 0-.09-.25l-3.86-4.55c-.3-.35-.45-.73-.45-1.13 0-.4.14-.8.42-1.16.23-.34.68-.9 1.35-1.67.66-.78 1.25-1.51 1.74-2.19.5-.68.83-1.3.99-1.85l.08-.33a.37.37 0 0 1-.03-.16c0-.07 0-.14-.02-.19H22.6c-.26.1-.48.25-.64.45l-.16.48c-.44 1.16-1.6 2.94-3.49 5.36-.37.33-.8.5-1.3.5Z" />
  </symbol>
  <symbol id="icon-youtube" viewBox="0 0 29 23" fill="currentColor">
    <path d="m18.6 10.89-5.24-3.5a.65.65 0 0 0-1.02.55v6.98a.65.65 0 0 0 1.02.55l5.23-3.5a.65.65 0 0 0 0-1.08Zm-4.95 2.81V9.16l3.4 2.27-3.4 2.27Zm12.48-8.56a2.4 2.4 0 0 0-1.45-1.64c-3.72-1.43-9.69-1.4-9.94-1.4S8.52 2.06 4.8 3.5a2.4 2.4 0 0 0-1.45 1.64 25.32 25.32 0 0 0-.6 6.3c0 3.25.32 5.22.6 6.29a2.4 2.4 0 0 0 1.45 1.63c3.72 1.43 9.69 1.41 9.94 1.41h.08c.75 0 6.31-.04 9.86-1.4a2.4 2.4 0 0 0 1.45-1.64c.28-1.07.61-3.04.61-6.3s-.33-5.22-.61-6.3ZM24.86 17.4a1.1 1.1 0 0 1-.65.74c-3.5 1.34-9.4 1.32-9.47 1.32-.06 0-5.98.02-9.47-1.32a1.1 1.1 0 0 1-.65-.74c-.26-1-.57-2.85-.57-5.97 0-3.12.3-4.96.57-5.96a1.1 1.1 0 0 1 .65-.75c3.5-1.34 9.4-1.32 9.47-1.32.07 0 5.98-.02 9.47 1.32a1.1 1.1 0 0 1 .65.75c.27 1 .57 2.84.57 5.96s-.3 4.97-.57 5.97Z" />
  </symbol>
  <symbol id="icon-telegram" viewBox="0 0 29 23" fill="currentColor">
    <path fill-rule="evenodd" clip-rule="evenodd" d="M24.2 3.25c.18.15.27.38.23.6L21.8 19.63a.66.66 0 0 1-1.01.43l-7.88-5.25a.66.66 0 0 1-.15-.95l2.61-3.27-4.36 2.9a.66.66 0 0 1-.65.05L5.1 10.9a.66.66 0 0 1 .08-1.2l18.38-6.57a.66.66 0 0 1 .64.12ZM7.07 10.42l3.53 1.76 7.56-5.04a.66.66 0 0 1 .88.96l-4.8 6 6.43 4.3 2.28-13.65-15.88 5.67Z" />
  </symbol>
  <symbol id="logo-html-academy" viewBox="0 0 27 35" fill="currentColor">
    <path d="M13.75.04h-.1L.21 1.44v24.7l13.44 8 13.35-8V1.44L13.75.04Zm11.36 12.1-11.46-6.8v-.1h-.1l-.1-.1v.1L2.1 12.14v-9l11.45-1.2 11.56 1.2v9Zm-11.56-5.3 11.46 6.7-4.48 2.6-7.07-4.2v1.4l5.87 3.5-.9.5-4.97-3v1.4l3.78 2.3-.8.5-2.98-1.8v1.4l1.89 1.1-1.8 1.1-11.35-6.7 11.35-6.8ZM2.1 15.14l11.36 6.8v1l-7.87-4.7v1.4l7.96 4.8v1.1l-7.96-4.7v1.4l7.96 4.8 8.07-4.9v-5.2l3.39-2v10l-11.46 6.9-11.45-6.8v-9.9Z" />
  </symbol>
  <symbol id="icon-add-cart" viewBox="0 0 20 19" fill="currentColor">
    <path d="M19.23 7.24h-3.38L12.56.4c-.2-.4-.58-.5-.97-.3-.38.2-.48.6-.29 1l3 6.14H5.5l3-6.13c.2-.4 0-.8-.29-1-.38-.21-.77 0-.96.3L3.96 7.23H.77c-.38 0-.77.3-.77.8 0 .4.29.8.77.8h.2l.87 3.02c-.2.1-.3.3-.3.6 0 .4.3.7.68.7L3.86 19h12.28l1.64-5.83c.38 0 .67-.3.67-.7 0-.2-.1-.5-.29-.6l.87-3.02h.2c.38 0 .77-.3.77-.8 0-.51-.39-.81-.77-.81Zm-4.35 10.15H4.83l-1.16-4.32h12.47l-1.26 4.32Zm1.55-5.83H3.19l-.77-2.81H17.2l-.77 2.81Z" />
  </symbol>
</svg>
